<svg xmlns="http://www.w3.org/2000/svg" width="704" height="128" viewBox="0 0 704 128">
<g fill="#f8f8f8" fill-opacity="1"><g transform="translate(1.08369, 98.132655)"><path d="M 8.828125 -77.3125 L 27.609375 -77.3125 L 68.46875 -25.40625 L 69.015625 -25.40625 L 67.921875 -40.3125 L 67.921875 -77.3125 L 85.59375 -77.3125 L 85.59375 0 L 66.8125 0 L 25.953125 -51.90625 L 25.40625 -51.90625 L 26.5 -37 L 26.5 0 L 8.828125 0 Z M 8.828125 -77.3125 "/></g></g><g fill="#f8f8f8" fill-opacity="1"><g transform="translate(95.502631, 98.132655)"><path d="M 8.828125 -77.3125 L 75.09375 -77.3125 L 75.09375 -67.359375 L 69.578125 -61.84375 L 26.5 -61.84375 L 26.5 -46.390625 L 62.953125 -46.390625 L 62.953125 -31.46875 L 26.5 -31.46875 L 26.5 -15.46875 L 75.09375 -15.46875 L 75.09375 0 L 8.828125 0 Z M 8.828125 -77.3125 "/></g></g><g fill="#f8f8f8" fill-opacity="1"><g transform="translate(175.565471, 98.132655)"><path d="M 3.859375 -8.828125 L 29.265625 -38.65625 L 6.078125 -68.46875 L 6.078125 -77.3125 L 22.640625 -77.3125 L 42.515625 -49.703125 L 43.625 -49.703125 L 63.5 -77.3125 L 80.0625 -77.3125 L 80.0625 -68.46875 L 56.875 -39.203125 L 82.28125 -8.828125 L 82.28125 0 L 65.703125 0 L 43.625 -27.609375 L 42.515625 -27.609375 L 20.4375 0 L 3.859375 0 Z M 3.859375 -8.828125 "/></g></g><g fill="#f8f8f8" fill-opacity="1"><g transform="translate(261.702048, 98.132655)"><path d="M 1.65625 -8.828125 L 31.46875 -77.3125 L 54.671875 -77.3125 L 84.484375 -8.828125 L 84.484375 0 L 67.921875 0 L 61.84375 -14.90625 L 24.296875 -14.90625 L 18.21875 0 L 1.65625 0 Z M 55.765625 -29.8125 L 43.078125 -61.296875 L 30.375 -29.8125 Z M 55.765625 -29.8125 "/></g></g><g fill="#f8f8f8" fill-opacity="1"><g transform="translate(378.759454, 98.132655)"><path d="M 8.828125 -77.3125 L 63.5 -77.3125 C 69.019531 -77.3125 73.4375 -75.648438 76.75 -72.328125 C 80.0625 -69.015625 81.71875 -64.597656 81.71875 -59.078125 L 81.71875 -41.40625 C 81.71875 -35.882812 80.0625 -31.46875 76.75 -28.15625 C 73.4375 -24.84375 69.019531 -23.1875 63.5 -23.1875 L 26.5 -23.1875 L 26.5 0 L 8.828125 0 Z M 56.875 -38.65625 C 61.65625 -38.65625 64.046875 -41.046875 64.046875 -45.828125 L 64.046875 -54.671875 C 64.046875 -59.453125 61.65625 -61.84375 56.875 -61.84375 L 26.5 -61.84375 L 26.5 -38.65625 Z M 56.875 -38.65625 "/></g></g><g fill="#f8f8f8" fill-opacity="1"><g transform="translate(467.104658, 98.132655)"><path d="M 8.828125 -77.3125 L 26.5 -77.3125 L 26.5 -16.015625 L 74 -16.015625 L 74 0 L 8.828125 0 Z M 8.828125 -77.3125 "/></g></g><g fill="#f8f8f8" fill-opacity="1"><g transform="translate(543.854527, 98.132655)"><path d="M 1.65625 -8.828125 L 31.46875 -77.3125 L 54.671875 -77.3125 L 84.484375 -8.828125 L 84.484375 0 L 67.921875 0 L 61.84375 -14.90625 L 24.296875 -14.90625 L 18.21875 0 L 1.65625 0 Z M 55.765625 -29.8125 L 43.078125 -61.296875 L 30.375 -29.8125 Z M 55.765625 -29.8125 "/></g></g><g fill="#f8f8f8" fill-opacity="1"><g transform="translate(621.156252, 98.132655)"><path d="M 31.46875 -24.296875 L 2.203125 -68.46875 L 2.203125 -77.3125 L 18.21875 -77.3125 L 39.75 -43.078125 L 40.859375 -43.078125 L 62.390625 -77.3125 L 78.40625 -77.3125 L 78.40625 -68.46875 L 49.140625 -24.296875 L 49.140625 0 L 31.46875 0 Z M 31.46875 -24.296875 "/></g></g>
</svg>
