<svg xmlns="http://www.w3.org/2000/svg" xmlns:xlink="http://www.w3.org/1999/xlink" viewBox="570 570 360 360" preserveAspectRatio="xMidYMid meet" version="1.0"><defs><clipPath id="5c988ef976"><path d="M 590.382812 579.636719 L 909.882812 579.636719 L 909.882812 920.136719 L 590.382812 920.136719 Z M 590.382812 579.636719 " clip-rule="nonzero"/></clipPath><clipPath id="ef3d04a425"><path d="M 590.382812 739.253906 L 590.382812 760.746094 C 590.382812 803.082031 607.199219 843.679688 637.136719 873.613281 C 667.070312 903.546875 707.667969 920.363281 750 920.363281 C 792.332031 920.363281 832.929688 903.546875 862.867188 873.613281 C 892.800781 843.679688 909.617188 803.082031 909.617188 760.746094 L 909.617188 739.253906 C 909.617188 696.917969 892.800781 656.320312 862.867188 626.386719 C 832.929688 596.453125 792.332031 579.636719 750 579.636719 C 707.667969 579.636719 667.070312 596.453125 637.136719 626.386719 C 607.199219 656.320312 590.382812 696.917969 590.382812 739.253906 Z M 590.382812 739.253906 " clip-rule="nonzero"/></clipPath><clipPath id="3469cf2328"><path d="M 645.894531 715 L 738 715 L 738 785 L 645.894531 785 Z M 645.894531 715 " clip-rule="nonzero"/></clipPath><clipPath id="e5697b1f5d"><path d="M 715 645.894531 L 785 645.894531 L 785 738 L 715 738 Z M 715 645.894531 " clip-rule="nonzero"/></clipPath><clipPath id="7509b3ea7c"><path d="M 762 715 L 854.394531 715 L 854.394531 785 L 762 785 Z M 762 715 " clip-rule="nonzero"/></clipPath><clipPath id="09da82065d"><path d="M 715 762 L 785 762 L 785 854.394531 L 715 854.394531 Z M 715 762 " clip-rule="nonzero"/></clipPath></defs><g clip-path="url(#5c988ef976)"><g clip-path="url(#ef3d04a425)"><path fill="#f8f8f8" d="M 1047.945312 1062.601562 L 1047.945312 689.742188 L 932.859375 574.632812 L 932.859375 573.917969 L 932.128906 573.917969 L 930.402344 572.179688 L 930.402344 573.917969 L 557.542969 573.917969 L 557.542969 946.785156 L 555.804688 946.785156 L 557.542969 948.523438 L 557.542969 949.238281 L 558.257812 949.238281 L 673.359375 1064.347656 L 1046.226562 1064.347656 L 1047.945312 1066.089844 L 1047.945312 1064.347656 L 1049.683594 1064.347656 Z M 674.371094 1061.886719 L 561.703125 949.214844 L 931.101562 949.214844 L 1043.773438 1061.886719 Z M 1045.488281 1060.144531 L 932.820312 947.476562 L 932.820312 578.121094 L 1045.488281 690.792969 Z M 1045.488281 1060.144531 " fill-opacity="1" fill-rule="nonzero"/></g></g><g clip-path="url(#3469cf2328)"><path fill="#202020" d="M 737.730469 749.996094 L 703.027344 715.296875 L 654.566406 715.296875 C 649.800781 715.296875 645.894531 719.199219 645.894531 723.972656 L 645.894531 776.023438 C 645.894531 780.792969 649.800781 784.699219 654.566406 784.699219 L 703.027344 784.699219 Z M 737.730469 749.996094 " fill-opacity="1" fill-rule="nonzero"/></g><g clip-path="url(#e5697b1f5d)"><path fill="#202020" d="M 749.996094 737.730469 L 784.699219 703.027344 L 784.699219 654.566406 C 784.699219 649.800781 780.792969 645.894531 776.023438 645.894531 L 723.972656 645.894531 C 719.199219 645.894531 715.296875 649.800781 715.296875 654.566406 L 715.296875 703.027344 Z M 749.996094 737.730469 " fill-opacity="1" fill-rule="nonzero"/></g><g clip-path="url(#7509b3ea7c)"><path fill="#202020" d="M 845.425781 715.296875 L 796.964844 715.296875 L 762.265625 749.996094 L 796.964844 784.699219 L 845.425781 784.699219 C 850.195312 784.699219 854.101562 780.792969 854.101562 776.023438 L 854.101562 723.972656 C 854.101562 719.199219 850.195312 715.296875 845.425781 715.296875 Z M 845.425781 715.296875 " fill-opacity="1" fill-rule="nonzero"/></g><g clip-path="url(#09da82065d)"><path fill="#202020" d="M 749.996094 762.265625 L 715.296875 796.964844 L 715.296875 845.425781 C 715.296875 850.195312 719.199219 854.101562 723.972656 854.101562 L 776.023438 854.101562 C 780.792969 854.101562 784.699219 850.195312 784.699219 845.425781 L 784.699219 796.964844 Z M 749.996094 762.265625 " fill-opacity="1" fill-rule="nonzero"/></g></svg>